<?xml version="1.0" encoding="UTF-8" standalone="no"?><!DOCTYPE svg PUBLIC "-//W3C//DTD SVG 1.1//EN" "http://www.w3.org/Graphics/SVG/1.1/DTD/svg11.dtd"><svg width="100%" height="100%" viewBox="0 0 373 92" version="1.1" xmlns="http://www.w3.org/2000/svg" xmlns:xlink="http://www.w3.org/1999/xlink" xml:space="preserve" xmlns:serif="http://www.serif.com/" style="fill-rule:evenodd;clip-rule:evenodd;stroke-linejoin:round;stroke-miterlimit:2;"><g transform="matrix(85.728174,0,0,85.728174,374.202589,67.92778)"></g><text x="121.733px" y="67.928px" style="font-family:'ZizouSlab-Black', 'Zizou Slab';font-weight:800;font-size:85.728px;">a<tspan x="165.283px 199.403px " y="67.928px 67.928px ">te</tspan>li<tspan x="293.361px " y="67.928px ">e</tspan>r</text><path id="primary" d="M100.566,40.741l-20.014,-35.648c-1.833,-3.176 -5.245,-5.125 -8.912,-5.093l-41.351,-0c-3.667,-0.033 -7.079,1.917 -8.912,5.093l-20.014,35.648c-1.817,3.147 -1.817,7.038 0,10.185l20.014,35.648c1.833,3.176 5.245,5.125 8.912,5.093l41.351,0c3.667,0.033 7.079,-1.917 8.912,-5.093l20.014,-35.648c1.817,-3.147 1.817,-7.038 0,-10.185Zm-49.601,20.37c-8.381,0 -15.278,-6.897 -15.278,-15.278c0,-8.381 6.897,-15.278 15.278,-15.278c8.381,0 15.278,6.897 15.278,15.278c0,8.381 -6.897,15.278 -15.278,15.278Z" style="fill:#4071eb;fill-rule:nonzero;"/></svg>